<?xml version="1.0" encoding="utf-8"?>
<!-- Generator: Adobe Illustrator 18.1.1, SVG Export Plug-In . SVG Version: 6.00 Build 0)  -->
<svg version="1.0" id="Layer_1" xmlns="http://www.w3.org/2000/svg" xmlns:xlink="http://www.w3.org/1999/xlink" x="0px" y="0px"
	 viewBox="0 0 24 24" enable-background="new 0 0 24 24" xml:space="preserve">
<g id="f4633k.tif">
	<g>
		<linearGradient id="SVGID_1_" gradientUnits="userSpaceOnUse" x1="12" y1="1.9014" x2="12" y2="22.0986">
			<stop  offset="0" style="stop-color:#DA294B"/>
			<stop  offset="1" style="stop-color:#C9437F"/>
		</linearGradient>
		<path fill="url(#SVGID_1_)" d="M22.1,12.1c0,0.4-0.1,0.8-0.1,1.2c-0.8,4.2-3.3,7-7.4,8.3C9.9,23.1,4.6,21,2,16.8
			c-0.2-0.3-0.1-0.7,0.2-0.9c0.3-0.2,0.7-0.1,0.9,0.3c1.3,2,3,3.5,5.3,4.1c3.8,1.1,7.1,0.4,10-2.4c1.4-1.4,2.1-3,2.4-4.9
			c0.3-2.2-0.1-4.3-1.4-6.1c-1.4-2.1-3.3-3.3-5.8-3.6c-2.1-0.3-4.1,0.2-5.9,1.5c-2.1,1.6-3.1,3.7-3,6.4c0.1,2.4,1.2,4.4,3.3,5.7
			c2.4,1.5,5.5,1.2,7.6-0.6c1.4-1.3,2.1-2.9,2-4.8c-0.1-1.8-0.9-3.2-2.4-4.2c-1.8-1.2-4.3-1.1-5.9,0.4c-1.6,1.4-1.9,3.9-0.6,5.5
			c1,1.4,2.9,1.8,4.3,1c1.2-0.7,1.7-2.1,1.2-3.3c-0.4-0.9-1.3-1.4-2.2-1.1c-0.6,0.2-1,0.7-0.9,1.3c0,0.1,0.1,0.2,0.1,0.2
			c0,0,0,0,0,0c0-0.3,0.2-0.5,0.5-0.6c0.3-0.1,0.5,0.1,0.7,0.3c0.3,0.4,0.2,0.9-0.2,1.2c-0.6,0.5-1.3,0.5-1.9,0
			c-0.6-0.6-0.8-1.5-0.4-2.3c0.4-1,1.2-1.4,2.2-1.5c1.7-0.1,3.2,1.2,3.3,3c0.2,2.4-1.7,4.5-4.3,4.4c-2.3-0.1-4.2-1.8-4.6-4.1
			c-0.5-3.1,1.6-6,4.7-6.5c3.6-0.6,6.8,1.9,7.4,5.4c0.6,3.9-1.9,7.4-5.8,8.2c-4.2,0.8-8.3-1.8-9.3-6C2.6,8.3,5.2,3.7,9.8,2.3
			c0.6-0.2,1.3-0.3,1.9-0.4c0.1,0,0.1,0,0.2,0c0.4,0,0.8,0,1.2,0C13.5,2,13.9,2,14.3,2.1c4,0.8,7,3.9,7.6,7.9
			c0.1,0.4,0.1,0.8,0.2,1.2C22.1,11.5,22.1,11.8,22.1,12.1z"/>
	</g>
</g>
</svg>
